<?xml version="1.0" standalone="no"?><!DOCTYPE svg PUBLIC "-//W3C//DTD SVG 1.1//EN" "http://www.w3.org/Graphics/SVG/1.1/DTD/svg11.dtd"><svg t="1613032550920" class="icon" viewBox="0 0 1024 1024" version="1.1" xmlns="http://www.w3.org/2000/svg" p-id="1482" width="180" height="180" xmlns:xlink="http://www.w3.org/1999/xlink"><defs><style type="text/css"></style></defs><path d="M359.68 50.7648c140.7488 0 254.848 114.1248 254.848 254.8736 0 5.5552-0.1792 11.1104-0.5376 16.6656-10.7776 164.3008-0.5888 283.5712 30.5408 357.8112 46.2848 110.336 165.6576 185.088 358.144 224.256-118.7328 60.3136-254.464 80.9984-407.1936 62.08-229.12-28.3904-371.1232 85.9648-520.704-177.0496C11.6992 678.4768-11.4688 539.2128 5.248 371.584A356.1728 356.1728 0 0 1 359.68 50.7648z" fill="#FFFFFF" p-id="1483"></path><path d="M359.68 50.7648c140.7488 0 254.848 114.1248 254.848 254.8736 0 5.5552-0.1792 11.1104-0.5376 16.6656-10.7776 164.3008-0.5888 283.5712 30.5408 357.8112 46.2848 110.336 165.6576 185.088 358.144 224.256-115.2512 58.5216-246.5024 79.744-393.7536 63.6416l-13.44-1.5616c-229.12-28.3904-371.1232 85.9648-520.704-177.0496C11.6992 678.4768-11.4688 539.2128 5.248 371.584A356.1728 356.1728 0 0 1 359.68 50.7648z m0 21.3504a334.848 334.848 0 0 0-333.184 301.568c-16.3328 163.5328 6.144 298.4192 66.816 405.1712a591.36 591.36 0 0 0 34.4064 53.9648c73.2928 101.4784 126.3616 118.8096 278.912 111.36l36.4288-1.9712c63.1296-3.2512 101.888-3.072 148.0448 2.2272l6.9888 0.8448c121.6512 15.0784 231.7568 4.3776 330.6496-31.9232l7.168-2.7136-9.8048-2.6624c-153.8048-42.88-253.824-113.664-298.4704-213.2224l-2.7648-6.4c-32.7168-77.952-43.136-200.1152-32.1792-367.4368a233.5232 233.5232 0 0 0-233.0368-248.8064z" fill="#000000" p-id="1484"></path><path d="M181.3248 330.6752m-32 0a32 32 0 1 0 64 0 32 32 0 1 0-64 0Z" fill="#000000" p-id="1485"></path><path d="M416 330.6752m-32 0a32 32 0 1 0 64 0 32 32 0 1 0-64 0Z" fill="#000000" p-id="1486"></path><path d="M256 469.3248a64 42.6752 90 1 0 85.3504 0 64 42.6752 90 1 0-85.3504 0Z" fill="#FFA7A7" p-id="1487"></path><path d="M298.6752 405.3248c23.552 0 42.6496 28.672 42.6496 64 0 35.3536-19.0976 64-42.6496 64-23.552 0-42.6752-28.6464-42.6752-64 0-35.328 19.0976-64 42.6752-64z m0 21.3504c-9.5232 0-21.3504 17.6896-21.3504 42.6496S289.152 512 298.6752 512c9.5232 0 21.3248-17.7152 21.3248-42.6752 0-24.96-11.8016-42.6496-21.3248-42.6496z" fill="#000000" p-id="1488"></path><path d="M128 426.6752m0-42.6752a42.6752 42.6752 0 1 0 0 85.3504 42.6752 42.6752 0 1 0 0-85.3504Z" fill="#FFDDDD" p-id="1489"></path><path d="M469.3248 426.6752m0-42.6752a42.6752 42.6752 0 1 0 0 85.3504 42.6752 42.6752 0 1 0 0-85.3504Z" fill="#FFDDDD" p-id="1490"></path><path d="M192 661.3248a42.6752 42.6752 0 0 1-85.2224 3.2l-0.1024-3.2V608a10.6752 10.6752 0 0 1 21.1456-1.92L128 608v53.3248a21.3248 21.3248 0 0 0 42.5216 2.5088l0.1536-2.5088V608a10.6752 10.6752 0 0 1 21.1456-1.92l0.1792 1.92v53.3248zM490.6752 661.3248a42.6752 42.6752 0 0 1-85.248 3.2l-0.1024-3.2V608a10.6752 10.6752 0 0 1 21.1712-1.92l0.1792 1.92v53.3248a21.3248 21.3248 0 0 0 42.496 2.5088l0.1536-2.5088V608a10.6752 10.6752 0 0 1 21.1712-1.92l0.1792 1.92v53.3248z" fill="#000000" p-id="1491"></path></svg>